<?xml version="1.0" standalone="no"?>
<!DOCTYPE svg PUBLIC "-//W3C//DTD SVG 20010904//EN"
 "http://www.w3.org/TR/2001/REC-SVG-20010904/DTD/svg10.dtd">
<svg version="1.0" xmlns="http://www.w3.org/2000/svg"
 width="151.000000pt" height="151.000000pt" viewBox="0 0 151.000000 151.000000"
 preserveAspectRatio="xMidYMid meet">
<metadata>
Created by potrace 1.14, written by Peter Selinger 2001-2017
</metadata>
<g transform="translate(0.000000,151.000000) scale(0.100000,-0.100000)"
fill="#000000" stroke="none">
<path d="M904 1272 c-28 -25 -134 -152 -194 -232 -44 -59 -112 -140 -118 -140
-3 0 -3 3 1 6 14 14 -17 63 -50 80 -91 42 -329 -27 -411 -121 -35 -40 -40 -66
-16 -89 16 -17 104 -23 104 -8 0 5 -13 7 -29 4 -36 -5 -71 13 -71 38 0 26 43
74 93 103 104 61 276 87 326 48 33 -25 31 -81 -4 -127 -15 -19 -24 -38 -20
-42 7 -7 44 30 98 98 l28 35 -21 -42 c-40 -85 -12 -111 55 -51 l36 31 -7 -26
c-5 -22 -3 -27 14 -27 10 0 31 10 46 21 l27 21 -14 -33 c-26 -63 0 -79 48 -29
35 37 54 40 26 4 -37 -47 -22 -89 19 -56 13 11 22 31 24 54 5 63 70 130 106
108 8 -5 4 -18 -14 -45 -30 -43 -32 -55 -12 -55 16 0 66 59 66 77 0 5 9 18 20
28 19 17 20 16 32 -29 13 -50 26 -56 52 -27 18 20 56 34 56 21 0 -4 -7 -10
-15 -14 -22 -8 -18 -31 5 -33 11 -1 32 5 48 13 38 20 59 19 42 -2 -11 -12 -11
-18 2 -30 14 -14 18 -13 38 16 32 45 34 31 4 -34 -35 -77 -23 -90 43 -48 53
35 53 44 1 12 -18 -11 -36 -20 -41 -20 -4 0 6 27 23 60 42 84 40 108 -8 74
-14 -10 -22 -11 -22 -3 0 7 -13 10 -35 7 -23 -3 -36 1 -40 10 -3 7 -8 11 -13
8 -4 -2 -14 -1 -21 4 -8 4 -27 2 -46 -6 -31 -12 -33 -12 -44 12 -6 14 -11 32
-11 41 0 9 38 52 85 96 112 104 141 157 88 157 -37 0 -131 -99 -172 -180 -30
-61 -72 -106 -85 -92 -4 4 -16 8 -27 8 -10 1 -21 2 -24 3 -3 0 19 34 48 74 74
100 99 144 88 151 -5 4 -18 -5 -28 -19 -10 -13 -47 -65 -83 -114 -49 -68 -74
-94 -103 -106 -20 -8 -40 -15 -42 -15 -11 0 25 58 77 125 80 103 120 164 116
177 -4 12 -89 -95 -162 -202 -47 -70 -149 -177 -154 -162 -7 21 32 86 135 225
57 76 103 148 103 159 0 31 -15 15 -94 -105 -163 -246 -310 -394 -226 -227 64
126 151 250 254 357 45 49 46 65 0 25z m386 -109 c0 -19 -134 -161 -162 -172
-5 -2 -1 14 10 36 28 55 110 143 133 143 10 0 19 -3 19 -7z m-380 -294 c-12
-16 -24 -28 -27 -26 -4 5 37 57 44 57 3 0 -5 -14 -17 -31z m-30 6 c-7 -9 -15
-13 -17 -11 -7 7 7 26 19 26 6 0 6 -6 -2 -15z m-34 -26 c6 -11 -41 -67 -50
-58 -7 7 22 69 33 69 5 0 13 -5 17 -11z"/>
<path d="M230 769 c0 -5 5 -7 10 -4 6 3 10 8 10 11 0 2 -4 4 -10 4 -5 0 -10
-5 -10 -11z"/>
<path d="M126 620 c-26 -70 -35 -104 -31 -109 3 -3 8 5 12 17 7 28 39 29 48 2
3 -11 10 -20 15 -20 8 0 -12 78 -29 108 -8 14 -10 15 -15 2z m24 -52 c0 -5 -7
-8 -15 -8 -17 0 -18 2 -9 25 5 13 8 14 15 3 5 -7 9 -16 9 -20z"/>
<path d="M211 630 c-2 -3 -4 -31 -6 -62 l-2 -58 36 1 c29 2 31 3 9 6 -25 4
-27 8 -31 61 -2 31 -5 55 -6 52z"/>
<path d="M303 616 c-10 -15 -10 -97 -1 -102 4 -3 8 9 8 26 0 17 4 29 8 26 4
-2 14 -1 22 5 12 7 10 9 -7 9 -14 0 -23 6 -23 15 0 13 19 20 43 16 5 -1 6 3 3
8 -8 12 -45 10 -53 -3z"/>
<path d="M390 570 c0 -39 4 -59 10 -55 6 4 8 10 6 14 -3 4 -1 13 4 20 6 10 12
7 25 -13 10 -14 21 -26 26 -26 5 0 2 11 -6 24 -14 20 -14 28 -3 45 15 25 4 39
-35 47 -27 4 -27 4 -27 -56z m53 26 c6 -15 -19 -30 -34 -20 -5 3 -9 12 -9 20
0 18 36 18 43 0z"/>
<path d="M499 626 c-1 -1 -3 -27 -4 -58 l-3 -58 37 1 c30 2 31 3 9 6 -35 5
-38 40 -5 53 l22 9 -22 0 c-29 1 -31 31 -3 31 11 0 20 4 20 8 0 6 -40 12 -51
8z"/>
<path d="M590 569 c0 -56 1 -59 24 -59 33 0 56 25 56 59 0 33 -20 53 -55 57
-24 2 -25 0 -25 -57z m60 21 c17 -32 -13 -82 -39 -66 -6 4 -7 81 -2 93 3 7 33
-12 41 -27z"/>
<path d="M799 623 c0 -1 -1 -23 -1 -48 0 -25 1 -49 1 -55 1 -5 16 -9 34 -9 28
2 29 2 5 6 -24 4 -26 8 -26 49 1 43 9 51 43 44 6 -1 6 2 2 6 -8 8 -56 14 -58
7z"/>
<path d="M902 618 c-20 -20 -14 -37 19 -53 36 -19 33 -41 -5 -38 -14 1 -24 -2
-21 -8 9 -14 51 -11 64 5 15 18 6 39 -22 51 -31 14 -29 41 3 37 20 -2 22 -1
10 7 -20 14 -33 14 -48 -1z"/>
<path d="M1023 622 c-22 -14 -32 -57 -19 -83 13 -27 52 -37 70 -19 8 9 6 11
-12 5 -29 -8 -52 10 -52 41 0 31 25 53 52 47 19 -4 20 -3 8 6 -18 13 -31 13
-47 3z"/>
<path d="M1110 571 c0 -34 4 -61 9 -61 4 0 7 11 6 25 -2 16 2 25 11 25 8 0 14
5 14 11 0 5 -4 8 -9 5 -10 -7 -24 22 -16 34 3 5 1 11 -5 15 -6 4 -10 -16 -10
-54z"/>
<path d="M1180 603 c0 -17 -6 -34 -12 -36 -10 -4 -10 -6 0 -6 6 -1 12 -13 12
-27 0 -14 4 -23 8 -20 10 6 8 103 -1 113 -4 3 -7 -8 -7 -24z"/>
<path d="M1230 569 l0 -59 38 1 c36 1 36 2 7 8 -35 7 -40 31 -10 48 l20 12
-20 1 c-13 0 -21 7 -22 19 -1 14 4 17 23 15 13 -1 24 1 24 5 0 5 -13 8 -30 9
l-30 1 0 -60z"/>
<path d="M1329 615 c-4 -59 -3 -98 4 -102 4 -2 7 7 7 21 0 33 17 33 32 1 6
-14 15 -25 20 -25 12 0 10 14 -4 28 -9 9 -9 18 0 36 9 20 8 28 -4 41 -20 19
-54 20 -55 0z m49 -24 c-2 -9 -11 -17 -21 -19 -12 -3 -17 3 -17 21 0 20 4 24
20 20 12 -3 20 -12 18 -22z"/>
<path d="M830 569 c0 -5 5 -7 10 -4 6 3 10 8 10 11 0 2 -4 4 -10 4 -5 0 -10
-5 -10 -11z"/>
<path d="M360 376 c0 -42 2 -46 24 -46 28 0 34 14 27 55 -4 21 -13 31 -29 33
-20 3 -22 -1 -22 -42z m40 19 c0 -8 -7 -15 -15 -15 -8 0 -15 7 -15 15 0 8 7
15 15 15 8 0 15 -7 15 -15z m3 -40 c1 -5 -6 -11 -15 -13 -11 -2 -18 3 -18 13
0 17 30 18 33 0z"/>
<path d="M441 373 c1 -36 3 -42 8 -23 l7 24 15 -22 c15 -21 16 -21 15 21 -1
36 -4 42 -23 45 -21 3 -23 0 -22 -45z m37 19 c2 -7 -3 -12 -12 -12 -9 0 -16 7
-16 16 0 17 22 14 28 -4z"/>
<path d="M523 375 c0 -27 2 -38 4 -22 2 15 2 37 0 50 -2 12 -4 0 -4 -28z"/>
<path d="M550 375 c0 -43 1 -45 28 -44 26 0 26 1 5 9 -27 11 -30 27 -5 33 16
4 16 5 0 6 -26 2 -22 29 5 34 19 4 18 4 -5 6 -27 1 -28 -1 -28 -44z"/>
<path d="M621 373 c1 -27 4 -38 6 -26 2 12 12 24 21 26 15 4 15 5 0 6 -26 2
-22 29 5 34 19 4 18 4 -5 6 -27 1 -28 -1 -27 -46z"/>
<path d="M690 375 c0 -43 1 -45 28 -44 23 2 24 2 5 6 -27 5 -31 30 -5 36 16 4
16 5 0 6 -26 2 -22 29 5 34 19 4 18 4 -5 6 -27 1 -28 -1 -28 -44z"/>
<path d="M760 375 c0 -37 3 -45 18 -45 10 0 23 5 30 12 17 17 15 65 -4 72 -36
14 -44 7 -44 -39z m45 24 c11 -16 -4 -59 -20 -59 -10 0 -15 11 -15 35 0 35 20
49 35 24z"/>
<path d="M844 381 c0 -21 3 -42 7 -45 3 -3 5 12 4 34 -1 22 -4 42 -7 45 -3 3
-5 -12 -4 -34z"/>
<path d="M887 412 c6 -4 13 -25 16 -47 l4 -40 1 42 c2 30 7 43 20 46 9 3 1 5
-18 6 -19 0 -30 -3 -23 -7z"/>
<path d="M959 413 c-3 -27 -1 -75 5 -80 3 -4 6 15 6 40 0 26 -2 47 -5 47 -3 0
-5 -3 -6 -7z"/>
<path d="M998 394 c-14 -29 -2 -57 27 -62 21 -5 34 7 40 38 10 50 -46 70 -67
24z m52 -19 c0 -28 -4 -35 -19 -35 -10 0 -21 6 -24 14 -10 24 4 56 24 56 15 0
19 -7 19 -35z"/>
<path d="M1090 373 c0 -55 5 -54 14 5 4 26 2 42 -4 42 -5 0 -10 -21 -10 -47z"/>
<path d="M1140 395 c0 -14 4 -25 9 -25 4 0 6 11 3 25 -2 14 -6 25 -8 25 -2 0
-4 -11 -4 -25z"/>
<path d="M1111 385 c0 -10 34 -55 41 -55 3 0 5 7 5 15 0 8 -5 15 -10 15 -5 0
-16 8 -23 18 -7 9 -13 13 -13 7z"/>
</g>
</svg>
